# xmcd
#
# Track frame offsets:
#	150
#	18594
#	36255
#	55717
#	79426
#	91043
#	104234
#	116155
#	129522
#	148579
#	164736
#	176366
#
# Disc length: 2515 seconds
#
# Revision: 0
# Processed by: cddbd v1.5.2PL0 Copyright (c) Steve Scherf et al.
# Submitted via: audiograbber 1.83.01
#
DISCID=a809d10c
DTITLE=International Music Express - IME 02
DYEAR=1900
DGENRE=
TTITLE0=City Of Lost Angels  - Razzy Bailey
TTITLE1=America Trillogy - Billy Joe Burnette
TTITLE2=Belive  - Nick Brown
TTITLE3=Hopelessly  - Black Alice Band
TTITLE4=I Just Want A Girl  - John Smith
TTITLE5=Low Down Dirty Blues  - Cathillee Harmon
TTITLE6=Memory Number One  - Billy Parker And Webb Pierce
TTITLE7=No Way, To Say Goodbye  - Johnny Eagle
TTITLE8=Oh Happy Day  - Linda Nelson
TTITLE9=Picture Queen  - Tommy Radclife
TTITLE10=Walk A Little Plainer Daddy  - Raymond L Boudreaux
TTITLE11=What´s On Youe Vow - Tommy Radclife
EXTD=
EXTT0=
EXTT1=
EXTT2=
EXTT3=
EXTT4=
EXTT5=
EXTT6=
EXTT7=
EXTT8=
EXTT9=
EXTT10=
EXTT11=
PLAYORDER=
